<?xml version="1.0" standalone="no"?>
<!DOCTYPE svg PUBLIC "-//W3C//DTD SVG 20010904//EN"
 "http://www.w3.org/TR/2001/REC-SVG-20010904/DTD/svg10.dtd">
<svg version="1.0" xmlns="http://www.w3.org/2000/svg"
 width="832.000000pt" height="1328.000000pt" viewBox="0 0 832.000000 1328.000000"
 preserveAspectRatio="xMidYMid meet">

<g transform="translate(0.000000,1328.000000) scale(0.100000,-0.100000)"
fill="#000000" stroke="none">
<path d="M3320 12766 c-131 -29 -237 -116 -298 -243 l-37 -78 0 -170 0 -170
36 -76 c91 -189 272 -281 497 -251 212 28 310 131 441 460 81 203 139 289 226
335 33 18 57 22 140 22 92 0 104 -2 154 -30 110 -61 157 -162 149 -325 -4 -82
-9 -104 -34 -149 -54 -99 -141 -151 -256 -151 -65 0 -63 4 -47 -87 l11 -63 64
0 c152 0 296 97 367 249 29 61 32 76 35 195 5 143 -6 212 -45 290 -36 72 -120
151 -200 189 -66 31 -72 32 -203 32 -132 0 -137 -1 -201 -32 -72 -36 -148
-108 -192 -184 -15 -25 -54 -115 -88 -199 -80 -203 -111 -263 -165 -317 -67
-67 -119 -86 -234 -86 -81 -1 -103 3 -145 23 -62 30 -115 83 -146 146 -22 44
-24 61 -24 179 0 117 3 135 25 180 52 106 138 162 267 172 l80 6 -9 51 c-17
101 -13 96 -66 95 -26 0 -72 -6 -102 -13z"/>
<path d="M4600 11380 l0 -210 -800 0 -800 0 0 -75 0 -75 800 0 800 0 0 -210 0
-210 75 0 75 0 0 495 0 495 -75 0 -75 0 0 -210z"/>
<path d="M3000 10513 l0 -78 158 -44 c86 -24 178 -50 205 -58 l47 -14 0 -279
0 -279 -47 -14 c-27 -8 -119 -34 -205 -58 l-158 -44 0 -78 c0 -70 2 -78 18
-73 1038 305 1724 506 1727 506 3 0 5 18 5 39 0 36 -3 40 -32 50 -51 16 -1709
501 -1714 501 -2 0 -4 -35 -4 -77z m1383 -463 c16 0 26 -4 22 -10 -3 -5 -16
-10 -29 -10 -12 0 -199 -51 -416 -114 -217 -63 -398 -112 -402 -109 -9 5 -11
457 -3 465 3 3 184 -46 403 -108 218 -63 410 -114 425 -114z"/>
<path d="M4600 9270 l0 -210 -800 0 -800 0 0 -75 0 -75 800 0 800 0 0 -210 0
-210 75 0 75 0 0 495 0 495 -75 0 -75 0 0 -210z"/>
<path d="M3297 8249 c-138 -32 -263 -157 -302 -303 -14 -50 -17 -93 -13 -202
3 -131 5 -143 35 -207 38 -80 114 -163 183 -201 99 -54 125 -56 868 -56 l682
0 0 75 0 74 -702 3 -703 3 -53 24 c-69 31 -137 106 -157 174 -19 66 -19 209 0
275 21 69 69 129 135 166 l55 31 713 3 712 3 0 74 0 75 -707 -1 c-390 -1 -725
-5 -746 -10z"/>
<path d="M3320 6946 c-131 -29 -237 -116 -298 -243 l-37 -78 0 -170 0 -170 36
-76 c91 -189 272 -281 497 -251 212 28 310 131 441 460 81 203 139 289 226
335 33 18 57 22 140 22 92 0 104 -2 154 -30 110 -61 157 -162 149 -325 -4 -82
-9 -104 -34 -149 -54 -99 -141 -151 -256 -151 -65 0 -63 4 -47 -87 l11 -63 64
0 c152 0 296 97 367 249 29 61 32 76 35 195 5 143 -6 212 -45 290 -36 72 -120
151 -200 189 -66 31 -72 32 -203 32 -132 0 -137 -1 -201 -32 -72 -36 -148
-108 -192 -184 -15 -25 -54 -115 -88 -199 -80 -203 -111 -263 -165 -317 -67
-67 -119 -86 -234 -86 -81 -1 -103 3 -145 23 -62 30 -115 83 -146 146 -22 44
-24 61 -24 179 0 117 3 135 25 180 52 106 138 162 267 172 l80 6 -9 51 c-17
101 -13 96 -66 95 -26 0 -72 -6 -102 -13z"/>
</g>
</svg>
